<svg width="64" height="64" viewBox="0 0 64 64" fill="none" xmlns="http://www.w3.org/2000/svg">
<mask id="mask0_428_2016" style="mask-type:alpha" maskUnits="userSpaceOnUse" x="0" y="0" width="64" height="64">
<rect width="64" height="64" fill="#D9D9D9"/>
</mask>
<g mask="url(#mask0_428_2016)">
<path d="M34.4682 29.4663L25.0323 20.0303L26.9349 18.1945L34.4682 25.7278L49.6016 10.6611L51.4375 12.497L34.4682 29.4663ZM36.4118 56.2047L16.1042 50.2868V53.7432H5.4375V31.9996H22.4324L38.5554 37.9278C39.5093 38.2902 40.3306 38.9415 41.0196 39.8817C41.7085 40.8218 42.0529 42.0236 42.0529 43.4868H50.0528C51.6597 43.4868 52.899 44.0509 53.7708 45.1791C54.6426 46.3073 55.0785 47.7945 55.0785 49.6406V50.3586L36.4118 56.2047ZM8.1041 51.0765H13.4374V34.6663H8.1041V51.0765ZM36.2785 53.3739L52.2477 48.4406C52.2169 47.7466 52.0024 47.1919 51.6042 46.7765C51.2059 46.3611 50.6887 46.1535 50.0528 46.1535H37.5606C36.3537 46.1535 35.1605 46.0731 33.981 45.9125C32.8016 45.7518 31.7212 45.5005 30.74 45.1586L25.5759 43.456L26.5452 40.8509L31.5708 42.5842C32.4734 42.9193 33.4922 43.1535 34.6272 43.2868C35.7623 43.4201 37.3486 43.4868 39.3862 43.4868C39.3862 42.656 39.2332 41.9842 38.9272 41.4714C38.6212 40.9586 38.1828 40.6013 37.6118 40.3996L22.0118 34.6663H16.1042V47.4868L36.2785 53.3739Z" fill="#BBBECC"/>
</g>
</svg>
