<svg width="24" height="25" viewBox="0 0 24 25" fill="none" xmlns="http://www.w3.org/2000/svg">
<path d="M22.8396 24.0016H14.3895C13.8854 24.0016 13.4893 23.5935 13.4893 23.1014C13.4893 22.6093 13.8974 22.2012 14.3895 22.2012H22.8396C23.3437 22.2012 23.7398 22.6093 23.7398 23.1014C23.7398 23.5935 23.3437 24.0016 22.8396 24.0016Z" fill="white"/>
<path d="M13.9692 17.6273C14.4373 18.0954 14.4373 18.8516 13.9692 19.3318L10.3923 22.9087C9.05995 24.241 6.92341 24.313 5.50705 23.1247C5.42303 23.0527 5.35101 22.9807 5.27899 22.9087L4.23473 21.8644L2.08618 19.7159L1.05392 18.6836C0.969901 18.5996 0.897883 18.5156 0.825864 18.4315C-0.350433 17.0152 -0.266412 14.9026 1.05392 13.5823L4.63083 10.0054C5.09894 9.53726 5.85514 9.53726 6.32325 10.0054L13.9692 17.6273Z" fill="white"/>
<path d="M22.9469 10.3676L16.9453 16.3691C16.4772 16.8372 15.721 16.8372 15.2529 16.3691L7.60694 8.74721C7.13883 8.27909 7.13883 7.5229 7.60694 7.04278L13.6085 1.05327C15.0128 -0.351089 17.3174 -0.351089 18.7218 1.05327L22.9469 5.26633C24.3512 6.67069 24.3512 8.96327 22.9469 10.3676Z" fill="white"/>
</svg>
