<svg width="800" height="375" viewBox="0 0 800 375" fill="none" xmlns="http://www.w3.org/2000/svg">
<g filter="url(#filter0_d_166_76)">
<path d="M199 165L285.603 215V315L199 365L112.397 315V215L199 165Z" fill="#EAEEFF"/>
</g>
<mask id="mask0_166_76" style="mask-type:alpha" maskUnits="userSpaceOnUse" x="159" y="225" width="80" height="80">
<rect x="159" y="225" width="80" height="80" fill="#D9D9D9"/>
</mask>
<g mask="url(#mask0_166_76)">
<path d="M207.333 300.603V297.269C213.833 297.269 219.337 295.016 223.843 290.51C228.349 286.003 230.603 280.5 230.603 274H233.936C233.936 277.697 233.24 281.161 231.849 284.394C230.458 287.627 228.565 290.441 226.17 292.837C223.775 295.232 220.961 297.125 217.728 298.516C214.495 299.907 211.03 300.603 207.333 300.603ZM207.333 289.321V285.987C210.667 285.987 213.498 284.823 215.827 282.494C218.156 280.165 219.321 277.333 219.321 274H222.654C222.654 278.227 221.157 281.837 218.164 284.83C215.17 287.824 211.56 289.321 207.333 289.321ZM179.423 296.725C178.761 296.725 178.12 296.611 177.5 296.385C176.88 296.158 176.323 295.804 175.827 295.321L163.994 283.487C163.511 282.992 163.156 282.434 162.93 281.814C162.703 281.195 162.59 280.554 162.59 279.891C162.59 279.216 162.703 278.582 162.93 277.991C163.156 277.399 163.511 276.861 163.994 276.378L173.295 267.077C174.274 266.098 175.462 265.606 176.859 265.599C178.257 265.593 179.445 266.079 180.423 267.058L185.295 271.93L190 267.224L185.128 262.353C184.15 261.374 183.66 260.192 183.66 258.808C183.66 257.423 184.15 256.242 185.128 255.263L188.596 251.795C189.575 250.816 190.749 250.327 192.119 250.327C193.488 250.327 194.662 250.816 195.641 251.795L200.513 256.667L205.218 251.962L200.346 247.09C199.368 246.111 198.878 244.926 198.878 243.535C198.878 242.144 199.368 240.96 200.346 239.981L209.648 230.68C210.143 230.184 210.69 229.812 211.289 229.564C211.887 229.316 212.517 229.192 213.18 229.192C213.842 229.192 214.48 229.306 215.093 229.532C215.706 229.759 216.261 230.12 216.757 230.615L228.59 242.449C229.086 242.932 229.443 243.48 229.664 244.093C229.884 244.706 229.994 245.351 229.994 246.026C229.994 246.688 229.884 247.329 229.664 247.949C229.443 248.568 229.086 249.126 228.59 249.622L219.289 258.923C218.31 259.902 217.125 260.391 215.734 260.391C214.343 260.391 213.158 259.902 212.18 258.923L207.308 254.051L202.603 258.757L207.474 263.628C208.453 264.607 208.939 265.792 208.933 267.183C208.926 268.574 208.434 269.759 207.455 270.737L204.071 274.122C203.092 275.101 201.907 275.601 200.516 275.622C199.125 275.643 197.94 275.165 196.962 274.186L192.09 269.314L187.385 274.019L192.257 278.891C193.235 279.87 193.721 281.058 193.715 282.455C193.708 283.853 193.216 285.041 192.237 286.019L182.936 295.321C182.453 295.804 181.916 296.158 181.324 296.385C180.732 296.611 180.098 296.725 179.423 296.725ZM178.333 293.09C178.633 293.389 178.996 293.539 179.423 293.539C179.851 293.539 180.214 293.389 180.513 293.09L184.205 289.398L170 275.192L166.308 278.885C166.009 279.184 165.859 279.547 165.859 279.974C165.859 280.402 166.009 280.765 166.308 281.064L178.333 293.09ZM186.314 287.224L190.007 283.532C190.306 283.233 190.455 282.87 190.455 282.442C190.455 282.015 190.306 281.652 190.007 281.353L177.981 269.327C177.682 269.028 177.318 268.878 176.891 268.878C176.464 268.878 176.101 269.028 175.801 269.327L172.109 273.019L186.314 287.224ZM199.404 271.891C199.703 272.19 200.066 272.34 200.494 272.34C200.921 272.34 201.284 272.19 201.583 271.891L205.224 268.25C205.524 267.951 205.673 267.588 205.673 267.16C205.673 266.733 205.524 266.37 205.224 266.071L193.199 254.045C192.9 253.746 192.536 253.596 192.109 253.596C191.682 253.596 191.318 253.746 191.019 254.045L187.378 257.686C187.079 257.985 186.93 258.348 186.93 258.776C186.93 259.203 187.079 259.566 187.378 259.866L199.404 271.891ZM214.622 256.609C214.921 256.908 215.284 257.058 215.712 257.058C216.139 257.058 216.502 256.908 216.801 256.609L220.494 252.917L206.289 238.712L202.596 242.404C202.297 242.703 202.148 243.066 202.148 243.494C202.148 243.921 202.297 244.284 202.596 244.583L214.622 256.609ZM222.667 250.808L226.359 247.115C226.658 246.816 226.808 246.453 226.808 246.026C226.808 245.598 226.658 245.235 226.359 244.936L214.333 232.91C214.034 232.611 213.671 232.462 213.244 232.462C212.816 232.462 212.453 232.611 212.154 232.91L208.462 236.603L222.667 250.808Z" fill="#3F75FF"/>
</g>
<path d="M186.352 315.719C189.609 315.695 191.977 317.559 191.977 320.242C191.977 322.902 189.609 324.789 186.352 324.766C183.105 324.789 180.738 322.902 180.75 320.242C180.738 317.559 183.105 315.695 186.352 315.719ZM179.438 326.078C183.223 326.066 188.578 325.996 193.125 325.305L193.312 327.508C191.555 327.859 189.75 328.082 187.969 328.223V335.523H184.992V328.398C183.117 328.48 181.348 328.492 179.812 328.516L179.438 326.078ZM183.633 320.242C183.621 321.578 184.758 322.352 186.352 322.328C187.992 322.352 189.141 321.578 189.141 320.242C189.141 318.883 187.992 318.098 186.352 318.109C184.758 318.098 183.621 318.883 183.633 320.242ZM194.414 336.156V314.852H197.367V336.156H194.414ZM208.195 317.734C208.184 320.582 209.648 323.219 213.07 324.273L211.5 326.617C209.203 325.82 207.645 324.355 206.742 322.434C205.805 324.66 204.082 326.406 201.516 327.273L199.945 324.883C203.59 323.711 205.16 320.852 205.172 317.875V315.93H208.195V317.734ZM203.484 332.031C203.484 329.406 206.273 327.871 210.82 327.883C215.379 327.871 218.168 329.406 218.18 332.031C218.168 334.668 215.379 336.168 210.82 336.156C206.273 336.168 203.484 334.668 203.484 332.031ZM206.461 332.031C206.461 333.215 207.996 333.836 210.82 333.836C213.656 333.836 215.191 333.215 215.203 332.031C215.191 330.812 213.656 330.203 210.82 330.203C207.996 330.203 206.461 330.812 206.461 332.031ZM211.125 321.18V318.742H215.133V314.828H218.109V327.32H215.133V321.18H211.125Z" fill="#1F1F1F"/>
<g filter="url(#filter1_d_166_76)">
<path d="M400 165L486.603 215V315L400 365L313.397 315V215L400 165Z" fill="#EAEEFF"/>
</g>
<path d="M374.219 331.328V333.789H354.695V331.328H362.922V328.117H356.945V320.945H369.016V318.602H356.922V316.211H371.969V323.289H359.945V325.68H372.461V328.117H365.898V331.328H374.219ZM392.5 316.797V319.352C392.488 322.281 392.488 325.176 391.727 329.594L388.703 329.336C389.512 325.234 389.512 322.188 389.523 319.352V319.188H377.453V316.797H392.5ZM375.438 333.367V330.906H394.891V333.367H375.438ZM404.242 316.234L398.758 336.555H395.781L401.242 316.234H404.242ZM416.406 316.492C416.395 319.012 418.973 321.789 423.859 322.398L422.688 324.812C418.961 324.273 416.23 322.551 414.836 320.242C413.43 322.539 410.711 324.273 407.031 324.812L405.836 322.398C410.688 321.789 413.254 319.012 413.266 316.492V315.461H416.406V316.492ZM405.086 328.867V326.43H424.539V328.867H416.242V336.156H413.289V328.867H405.086ZM443.664 314.828V336.156H440.664V314.828H443.664ZM425.945 329.875C429.449 328.34 431.184 324.754 431.195 321.508V320.688H426.648V318.297H431.172V315.297H434.148V318.297H438.602V320.688H434.172V321.508C434.172 324.602 435.918 328.082 439.469 329.547L437.852 331.844C435.426 330.848 433.691 328.809 432.719 326.359C431.77 328.949 430.023 331.129 427.539 332.172L425.945 329.875Z" fill="#1F1F1F"/>
<mask id="mask1_166_76" style="mask-type:alpha" maskUnits="userSpaceOnUse" x="360" y="225" width="80" height="80">
<rect x="360" y="225" width="80" height="80" fill="#D9D9D9"/>
</mask>
<g mask="url(#mask1_166_76)">
<path d="M368.301 283.212L365.576 281.218L380.192 257.821L390.192 269.487L403.397 248.077L410.236 258.391C409.6 258.489 409.011 258.6 408.47 258.721C407.93 258.843 407.382 258.998 406.826 259.186L403.519 254.257L390.724 275.096L380.64 263.346L368.301 283.212ZM431.916 299.295L420.474 287.981C419.491 288.716 418.415 289.278 417.246 289.667C416.077 290.056 414.856 290.25 413.583 290.25C410.313 290.25 407.552 289.123 405.297 286.869C403.043 284.614 401.916 281.853 401.916 278.583C401.916 275.314 403.043 272.553 405.297 270.298C407.552 268.044 410.313 266.917 413.583 266.917C416.852 266.917 419.614 268.044 421.868 270.298C424.122 272.553 425.249 275.314 425.249 278.583C425.249 279.9 425.044 281.153 424.634 282.343C424.224 283.533 423.63 284.626 422.852 285.622L434.294 296.917L431.916 299.295ZM413.583 286.917C415.916 286.917 417.888 286.111 419.499 284.5C421.11 282.889 421.916 280.917 421.916 278.583C421.916 276.25 421.11 274.278 419.499 272.667C417.888 271.056 415.916 270.25 413.583 270.25C411.249 270.25 409.277 271.056 407.666 272.667C406.055 274.278 405.249 276.25 405.249 278.583C405.249 280.917 406.055 282.889 407.666 284.5C409.277 286.111 411.249 286.917 413.583 286.917ZM419.717 259.096C419.174 258.908 418.633 258.75 418.092 258.622C417.552 258.494 416.991 258.402 416.41 258.346L431.698 234.039L434.422 236.032L419.717 259.096Z" fill="#3F75FF"/>
</g>
<g filter="url(#filter2_d_166_76)">
<path d="M600 165L686.603 215V315L600 365L513.397 315V215L600 165Z" fill="#EAEEFF"/>
</g>
<path d="M575.977 314.828V322.797H579.117V325.305H575.977V336.156H572.977V314.828H575.977ZM559.828 331.211V316.516H562.805V321.719H567.234V316.516H570.211V331.211H559.828ZM562.805 328.797H567.234V324.039H562.805V328.797ZM597.75 314.828V336.203H594.727V314.828H597.75ZM580.523 323.922C580.512 319.27 582.891 316.328 586.172 316.328C589.383 316.328 591.773 319.27 591.773 323.922C591.773 328.609 589.383 331.539 586.172 331.539C582.891 331.539 580.512 328.609 580.523 323.922ZM583.406 323.922C583.395 327.098 584.508 328.832 586.172 328.82C587.789 328.832 588.879 327.098 588.891 323.922C588.879 320.758 587.789 319.023 586.172 319.023C584.508 319.023 583.395 320.758 583.406 323.922ZM618.656 314.828V336.203H615.68V323.852H609.844V321.414H615.68V314.828H618.656ZM601.734 331.188V317.102H604.734V328.691C607.441 328.645 610.23 328.41 613.125 327.859L613.453 330.297C610.008 331.012 606.727 331.188 603.539 331.188H601.734ZM639.258 314.828V336.203H636.281V314.828H639.258ZM622.5 319.023V316.609H632.648V324.836H625.617V328.75C628.875 328.727 631.629 328.562 634.758 328.047L635.016 330.461C631.512 331.082 628.336 331.211 624.445 331.211H622.523V322.469H629.602V319.023H622.5Z" fill="#1F1F1F"/>
<mask id="mask2_166_76" style="mask-type:alpha" maskUnits="userSpaceOnUse" x="560" y="225" width="80" height="80">
<rect x="560" y="225" width="80" height="80" fill="#D9D9D9"/>
</mask>
<g mask="url(#mask2_166_76)">
<path d="M576.154 291.667C574.62 291.667 573.339 291.153 572.311 290.125C571.283 289.097 570.77 287.816 570.77 286.282V243.718C570.77 242.184 571.283 240.903 572.311 239.875C573.339 238.847 574.62 238.333 576.154 238.333H618.718C620.253 238.333 621.534 238.847 622.561 239.875C623.589 240.903 624.103 242.184 624.103 243.718V250.898H629.231V254.231H624.103V263.333H629.231V266.667H624.103V275.769H629.231V279.103H624.103V286.282C624.103 287.816 623.589 289.097 622.561 290.125C621.534 291.153 620.253 291.667 618.718 291.667H576.154ZM576.154 288.333H618.718C619.231 288.333 619.701 288.12 620.129 287.692C620.556 287.265 620.77 286.795 620.77 286.282V243.718C620.77 243.205 620.556 242.735 620.129 242.308C619.701 241.88 619.231 241.667 618.718 241.667H576.154C575.641 241.667 575.171 241.88 574.744 242.308C574.317 242.735 574.103 243.205 574.103 243.718V286.282C574.103 286.795 574.317 287.265 574.744 287.692C575.171 288.12 575.641 288.333 576.154 288.333ZM583.334 279.103H596.795V268.974H583.334V279.103ZM601.411 257.692H611.539V250.898H601.411V257.692ZM583.334 264.359H596.795V250.898H583.334V264.359ZM601.411 279.103H611.539V262.308H601.411V279.103Z" fill="#3F75FF"/>
</g>
<g filter="url(#filter3_d_166_76)">
<path d="M300 0L386.603 50V150L300 200L213.397 150V50L300 0Z" fill="#EAEEFF"/>
</g>
<path d="M287.879 149.828V171.203H284.855V149.828H287.879ZM270.652 158.922C270.641 154.27 273.02 151.328 276.301 151.328C279.512 151.328 281.902 154.27 281.902 158.922C281.902 163.609 279.512 166.539 276.301 166.539C273.02 166.539 270.641 163.609 270.652 158.922ZM273.535 158.922C273.523 162.098 274.637 163.832 276.301 163.82C277.918 163.832 279.008 162.098 279.02 158.922C279.008 155.758 277.918 154.023 276.301 154.023C274.637 154.023 273.523 155.758 273.535 158.922ZM302.129 151.75V166.07H291.816V151.75H302.129ZM294.816 163.703H299.223V154.094H294.816V163.703ZM305.598 171.203V149.828H308.621V171.203H305.598ZM319.777 155.641C319.766 159.086 321.547 162.777 325.121 164.266L323.504 166.609C320.996 165.543 319.262 163.422 318.301 160.844C317.34 163.645 315.57 165.988 313.051 167.148L311.34 164.781C314.879 163.199 316.707 159.25 316.707 155.641V154.328H312.184V151.891H324.23V154.328H319.777V155.641ZM326.34 171.156V149.828H329.363V171.156H326.34Z" fill="#1F1F1F"/>
<mask id="mask3_166_76" style="mask-type:alpha" maskUnits="userSpaceOnUse" x="260" y="60" width="80" height="80">
<rect x="260" y="60" width="80" height="80" fill="#D9D9D9"/>
</mask>
<g mask="url(#mask3_166_76)">
<path d="M300 115.769C303.483 115.769 306.426 114.567 308.83 112.164C311.234 109.76 312.436 106.816 312.436 103.333C312.436 99.8506 311.234 96.9072 308.83 94.5033C306.426 92.0995 303.483 90.8976 300 90.8976C296.517 90.8976 293.574 92.0995 291.17 94.5033C288.766 96.9072 287.564 99.8506 287.564 103.333C287.564 106.816 288.766 109.76 291.17 112.164C293.574 114.567 296.517 115.769 300 115.769ZM300 112.436C297.41 112.436 295.246 111.566 293.506 109.827C291.767 108.088 290.897 105.923 290.897 103.333C290.897 100.744 291.767 98.5792 293.506 96.8399C295.246 95.1006 297.41 94.2309 300 94.2309C302.59 94.2309 304.754 95.1006 306.494 96.8399C308.233 98.5792 309.103 100.744 309.103 103.333C309.103 105.923 308.233 108.088 306.494 109.827C304.754 111.566 302.59 112.436 300 112.436ZM275.385 126.667C273.85 126.667 272.569 126.153 271.542 125.125C270.514 124.097 270 122.816 270 121.282V85.3847C270 83.8506 270.514 82.5696 271.542 81.5418C272.569 80.5141 273.85 80.0002 275.385 80.0002H285.244L291.41 73.3335H308.59L314.756 80.0002H324.615C326.15 80.0002 327.431 80.5141 328.458 81.5418C329.486 82.5696 330 83.8506 330 85.3847V121.282C330 122.816 329.486 124.097 328.458 125.125C327.431 126.153 326.15 126.667 324.615 126.667H275.385ZM324.615 123.333C325.214 123.333 325.705 123.141 326.09 122.757C326.474 122.372 326.667 121.881 326.667 121.282V85.3847C326.667 84.7865 326.474 84.295 326.09 83.9104C325.705 83.5258 325.214 83.3335 324.615 83.3335H313.295L307.147 76.6668H292.853L286.705 83.3335H275.385C274.786 83.3335 274.295 83.5258 273.91 83.9104C273.526 84.295 273.333 84.7865 273.333 85.3847V121.282C273.333 121.881 273.526 122.372 273.91 122.757C274.295 123.141 274.786 123.333 275.385 123.333H324.615Z" fill="#3F75FF"/>
</g>
<g filter="url(#filter4_d_166_76)">
<path d="M500 0L586.603 50V150L500 200L413.397 150V50L500 0Z" fill="#EAEEFF"/>
</g>
<path d="M490.117 150.227C494.863 150.215 497.863 151.797 497.875 154.398C497.863 156.988 494.863 158.535 490.117 158.523C485.395 158.535 482.336 156.988 482.336 154.398C482.336 151.797 485.395 150.215 490.117 150.227ZM480.391 162.156V159.766H499.844V162.156H480.391ZM482.641 170.922V163.656H497.523V170.922H482.641ZM485.453 154.398C485.43 155.594 487.129 156.203 490.117 156.203C493.059 156.203 494.781 155.594 494.781 154.398C494.781 153.168 493.059 152.547 490.117 152.547C487.129 152.547 485.43 153.168 485.453 154.398ZM485.594 168.531H494.594V166.023H485.594V168.531ZM509.195 152.734C509.184 155.582 510.648 158.219 514.07 159.273L512.5 161.617C510.203 160.82 508.645 159.355 507.742 157.434C506.805 159.66 505.082 161.406 502.516 162.273L500.945 159.883C504.59 158.711 506.16 155.852 506.172 152.875V150.93H509.195V152.734ZM504.484 167.031C504.484 164.406 507.273 162.871 511.82 162.883C516.379 162.871 519.168 164.406 519.18 167.031C519.168 169.668 516.379 171.168 511.82 171.156C507.273 171.168 504.484 169.668 504.484 167.031ZM507.461 167.031C507.461 168.215 508.996 168.836 511.82 168.836C514.656 168.836 516.191 168.215 516.203 167.031C516.191 165.812 514.656 165.203 511.82 165.203C508.996 165.203 507.461 165.812 507.461 167.031ZM512.125 156.18V153.742H516.133V149.828H519.109V162.32H516.133V156.18H512.125Z" fill="#1F1F1F"/>
<mask id="mask4_166_76" style="mask-type:alpha" maskUnits="userSpaceOnUse" x="460" y="60" width="80" height="80">
<rect x="460" y="60" width="80" height="80" fill="#D9D9D9"/>
</mask>
<g mask="url(#mask4_166_76)">
<path d="M500 103.333C498.12 103.333 496.538 102.692 495.256 101.41C493.974 100.128 493.333 98.547 493.333 96.6667V76.6667C493.333 74.7863 493.974 73.2051 495.256 71.9231C496.538 70.641 498.12 70 500 70C501.88 70 503.462 70.641 504.744 71.9231C506.026 73.2051 506.667 74.7863 506.667 76.6667V96.6667C506.667 98.547 506.026 100.128 504.744 101.41C503.462 102.692 501.88 103.333 500 103.333ZM498.333 128.333V116.609C493.111 116.13 488.75 113.996 485.25 110.205C481.75 106.415 480 101.902 480 96.6667H483.333C483.333 101.278 484.958 105.208 488.208 108.458C491.458 111.708 495.389 113.333 500 113.333C504.611 113.333 508.542 111.708 511.792 108.458C515.042 105.208 516.667 101.278 516.667 96.6667H520C520 101.902 518.25 106.415 514.75 110.205C511.25 113.996 506.889 116.13 501.667 116.609V128.333H498.333ZM500 100C500.944 100 501.736 99.6806 502.375 99.0417C503.014 98.4028 503.333 97.6111 503.333 96.6667V76.6667C503.333 75.7222 503.014 74.9306 502.375 74.2917C501.736 73.6528 500.944 73.3333 500 73.3333C499.056 73.3333 498.264 73.6528 497.625 74.2917C496.986 74.9306 496.667 75.7222 496.667 76.6667V96.6667C496.667 97.6111 496.986 98.4028 497.625 99.0417C498.264 99.6806 499.056 100 500 100Z" fill="#3F75FF"/>
</g>
<g filter="url(#filter5_d_166_76)">
<path d="M700 0L786.603 50V150L700 200L613.397 150V50L700 0Z" fill="#EAEEFF"/>
</g>
<path d="M686.344 150.977C688.043 150.965 689.531 151.598 690.551 152.641H695.391V149.828H698.367V162.32H695.391V159.766H690.527C689.508 160.797 688.031 161.418 686.344 161.406C683.109 161.418 680.648 159.215 680.672 156.203C680.648 153.156 683.109 150.965 686.344 150.977ZM683.508 156.203C683.496 157.844 684.68 158.887 686.344 158.875C687.949 158.887 689.121 157.844 689.133 156.203C689.121 154.504 687.949 153.52 686.344 153.531C684.68 153.52 683.496 154.504 683.508 156.203ZM683.742 166.961C683.742 164.312 686.566 162.754 691.078 162.766C695.59 162.754 698.426 164.312 698.438 166.961C698.426 169.609 695.59 171.168 691.078 171.156C686.566 171.168 683.742 169.609 683.742 166.961ZM686.672 166.961C686.672 168.203 688.254 168.836 691.078 168.836C693.961 168.836 695.496 168.203 695.508 166.961C695.496 165.684 693.961 165.051 691.078 165.039C688.254 165.051 686.672 165.684 686.672 166.961ZM691.828 155.008C691.922 155.383 691.969 155.793 691.969 156.203C691.969 156.613 691.922 157 691.84 157.375H695.391V155.008H691.828ZM708.914 153.18C708.902 155.77 710.414 158.254 713.789 159.297L712.195 161.617C709.934 160.867 708.352 159.414 707.438 157.551C706.512 159.695 704.859 161.383 702.422 162.203L700.805 159.859C704.367 158.676 705.891 155.84 705.914 152.898V150.953H708.914V153.18ZM703.758 167.031C703.746 164.441 706.57 162.906 711.07 162.906C715.488 162.906 718.254 164.441 718.266 167.031C718.254 169.645 715.488 171.168 711.07 171.156C706.57 171.168 703.746 169.645 703.758 167.031ZM706.758 167.031C706.734 168.238 708.27 168.812 711.07 168.812C713.836 168.812 715.312 168.238 715.312 167.031C715.312 165.871 713.836 165.25 711.07 165.25C708.27 165.25 706.734 165.871 706.758 167.031ZM715.055 162.484V149.828H718.055V154.82H720.938V157.305H718.055V162.484H715.055Z" fill="#1F1F1F"/>
<mask id="mask5_166_76" style="mask-type:alpha" maskUnits="userSpaceOnUse" x="660" y="60" width="80" height="80">
<rect x="660" y="60" width="80" height="80" fill="#0F52FF"/>
</mask>
<g mask="url(#mask5_166_76)">
<path d="M693.335 111.923V88.0768L711.924 99.9999L693.335 111.923ZM700.001 133.333C693.531 133.333 687.682 131.67 682.453 128.343C677.225 125.016 673.074 120.325 670.001 114.269V126.667H666.668V108.718H684.553V112.051H672.668C675.245 117.585 678.96 121.96 683.812 125.176C688.665 128.392 694.061 130 700.001 130C706.604 130 712.534 128.028 717.793 124.083C723.052 120.139 726.651 115.011 728.591 108.699L731.886 109.365C729.813 116.536 725.839 122.324 719.963 126.728C714.087 131.131 707.433 133.333 700.001 133.333ZM666.835 96.6666C667.266 93.2008 668.048 90.0907 669.181 87.3364C670.313 84.5821 671.973 81.782 674.162 78.9358L676.604 81.2499C674.826 83.5704 673.446 85.9048 672.463 88.2531C671.48 90.6014 670.721 93.4059 670.187 96.6666H666.835ZM681.27 76.6473L678.956 74.205C681.644 72.1025 684.48 70.439 687.463 69.2147C690.446 67.9903 693.514 67.2392 696.668 66.9614V70.2948C693.963 70.5725 691.3 71.2563 688.681 72.3461C686.061 73.4358 683.591 74.8696 681.27 76.6473ZM718.623 76.6473C716.602 74.9551 714.192 73.532 711.395 72.3781C708.598 71.2243 705.911 70.5298 703.335 70.2948V66.9614C706.501 67.252 709.579 68.017 712.569 69.2563C715.558 70.4956 718.369 72.1666 721.001 74.2692L718.623 76.6473ZM729.706 96.6666C729.343 93.5769 728.617 90.7617 727.527 88.2211C726.437 85.6805 725.003 83.3781 723.226 81.314L725.604 78.9358C727.749 81.4828 729.441 84.251 730.681 87.2403C731.92 90.2296 732.706 93.3717 733.04 96.6666H729.706Z" fill="#3F75FF"/>
</g>
<g filter="url(#filter6_d_166_76)">
<path d="M100 0L186.603 50V150L100 200L13.3975 150V50L100 0Z" fill="#EAEEFF"/>
</g>
<mask id="mask6_166_76" style="mask-type:alpha" maskUnits="userSpaceOnUse" x="60" y="58" width="80" height="80">
<rect x="60" y="58" width="80" height="80" fill="#D9D9D9"/>
</mask>
<g mask="url(#mask6_166_76)">
<path d="M74.2109 114.667L86.4545 81.5898H89.9546L102.39 114.667H98.8199L95.4354 105.205H80.9738L77.6533 114.667H74.2109ZM82.0828 102.295H94.3904L88.3392 85.2565H88.134L82.0828 102.295ZM115.397 115.519C112.974 115.519 111.07 114.875 109.685 113.587C108.301 112.298 107.608 110.56 107.608 108.372C107.608 106.039 108.436 104.146 110.092 102.696C111.748 101.245 113.929 100.519 116.634 100.519C117.784 100.519 118.911 100.638 120.015 100.875C121.12 101.112 122.061 101.453 122.839 101.898V100.09C122.839 97.9488 122.304 96.327 121.233 95.2244C120.163 94.1219 118.589 93.5706 116.512 93.5706C115.388 93.5706 114.334 93.7672 113.349 94.1603C112.364 94.5535 111.382 95.1582 110.403 95.9744L108.358 94.1411C109.542 93.0257 110.79 92.2073 112.102 91.686C113.414 91.1646 114.89 90.9039 116.532 90.9039C119.634 90.9039 121.952 91.702 123.487 93.2982C125.021 94.8943 125.788 97.2693 125.788 100.423V114.769H122.858V111.423H122.544C121.779 112.791 120.796 113.815 119.596 114.497C118.395 115.179 116.995 115.519 115.397 115.519ZM115.461 112.891C117.581 112.891 119.34 112.095 120.74 110.503C122.139 108.911 122.839 106.906 122.839 104.487C122.104 104.043 121.215 103.699 120.173 103.455C119.13 103.212 118.106 103.09 117.102 103.09C115.068 103.09 113.482 103.555 112.346 104.484C111.209 105.414 110.64 106.709 110.64 108.372C110.64 109.739 111.078 110.835 111.955 111.657C112.831 112.48 113.999 112.891 115.461 112.891Z" fill="#3F75FF"/>
</g>
<path d="M78.9961 151.234V153.625H73.7227V155.523H78.1992V157.797H73.7227V159.836C76.043 159.812 77.7422 159.719 79.7227 159.391L80.0273 161.734C77.5781 162.133 75.5391 162.191 72.3164 162.18H70.8633V151.234H78.9961ZM73.5352 166.352V163.961H88.3477V171.156H85.3711V166.352H73.5352ZM79.1133 157.656V155.242H81.2695V150.25H84.1055V162.977H81.2695V157.656H79.1133ZM85.5117 163.117V149.852H88.3477V163.117H85.5117ZM101.988 152.641C101.977 155.77 104.754 159.109 109.582 159.93L108.27 162.414C104.543 161.676 101.789 159.578 100.406 156.848C99 159.555 96.2344 161.664 92.543 162.414L91.2539 159.93C96 159.086 98.7773 155.734 98.8008 152.641V151.094H101.988V152.641ZM90.7617 168.531V166.07H110.285V168.531H90.7617ZM128.895 160.844V163.211H113.801V151.398H128.73V153.812H116.848V156.062H128.238V158.406H116.848V160.844H128.895ZM111.504 168.672V166.234H131.027V168.672H111.504Z" fill="#1F1F1F"/>
<defs>
<filter id="filter0_d_166_76" x="108.398" y="165" width="181.203" height="210" filterUnits="userSpaceOnUse" color-interpolation-filters="sRGB">
<feFlood flood-opacity="0" result="BackgroundImageFix"/>
<feColorMatrix in="SourceAlpha" type="matrix" values="0 0 0 0 0 0 0 0 0 0 0 0 0 0 0 0 0 0 127 0" result="hardAlpha"/>
<feOffset dy="6"/>
<feGaussianBlur stdDeviation="2"/>
<feComposite in2="hardAlpha" operator="out"/>
<feColorMatrix type="matrix" values="0 0 0 0 0 0 0 0 0 0 0 0 0 0 0 0 0 0 0.1 0"/>
<feBlend mode="normal" in2="BackgroundImageFix" result="effect1_dropShadow_166_76"/>
<feBlend mode="normal" in="SourceGraphic" in2="effect1_dropShadow_166_76" result="shape"/>
</filter>
<filter id="filter1_d_166_76" x="309.398" y="165" width="181.203" height="210" filterUnits="userSpaceOnUse" color-interpolation-filters="sRGB">
<feFlood flood-opacity="0" result="BackgroundImageFix"/>
<feColorMatrix in="SourceAlpha" type="matrix" values="0 0 0 0 0 0 0 0 0 0 0 0 0 0 0 0 0 0 127 0" result="hardAlpha"/>
<feOffset dy="6"/>
<feGaussianBlur stdDeviation="2"/>
<feComposite in2="hardAlpha" operator="out"/>
<feColorMatrix type="matrix" values="0 0 0 0 0 0 0 0 0 0 0 0 0 0 0 0 0 0 0.1 0"/>
<feBlend mode="normal" in2="BackgroundImageFix" result="effect1_dropShadow_166_76"/>
<feBlend mode="normal" in="SourceGraphic" in2="effect1_dropShadow_166_76" result="shape"/>
</filter>
<filter id="filter2_d_166_76" x="509.398" y="165" width="181.203" height="210" filterUnits="userSpaceOnUse" color-interpolation-filters="sRGB">
<feFlood flood-opacity="0" result="BackgroundImageFix"/>
<feColorMatrix in="SourceAlpha" type="matrix" values="0 0 0 0 0 0 0 0 0 0 0 0 0 0 0 0 0 0 127 0" result="hardAlpha"/>
<feOffset dy="6"/>
<feGaussianBlur stdDeviation="2"/>
<feComposite in2="hardAlpha" operator="out"/>
<feColorMatrix type="matrix" values="0 0 0 0 0 0 0 0 0 0 0 0 0 0 0 0 0 0 0.1 0"/>
<feBlend mode="normal" in2="BackgroundImageFix" result="effect1_dropShadow_166_76"/>
<feBlend mode="normal" in="SourceGraphic" in2="effect1_dropShadow_166_76" result="shape"/>
</filter>
<filter id="filter3_d_166_76" x="209.398" y="0" width="181.203" height="210" filterUnits="userSpaceOnUse" color-interpolation-filters="sRGB">
<feFlood flood-opacity="0" result="BackgroundImageFix"/>
<feColorMatrix in="SourceAlpha" type="matrix" values="0 0 0 0 0 0 0 0 0 0 0 0 0 0 0 0 0 0 127 0" result="hardAlpha"/>
<feOffset dy="6"/>
<feGaussianBlur stdDeviation="2"/>
<feComposite in2="hardAlpha" operator="out"/>
<feColorMatrix type="matrix" values="0 0 0 0 0 0 0 0 0 0 0 0 0 0 0 0 0 0 0.1 0"/>
<feBlend mode="normal" in2="BackgroundImageFix" result="effect1_dropShadow_166_76"/>
<feBlend mode="normal" in="SourceGraphic" in2="effect1_dropShadow_166_76" result="shape"/>
</filter>
<filter id="filter4_d_166_76" x="409.398" y="0" width="181.203" height="210" filterUnits="userSpaceOnUse" color-interpolation-filters="sRGB">
<feFlood flood-opacity="0" result="BackgroundImageFix"/>
<feColorMatrix in="SourceAlpha" type="matrix" values="0 0 0 0 0 0 0 0 0 0 0 0 0 0 0 0 0 0 127 0" result="hardAlpha"/>
<feOffset dy="6"/>
<feGaussianBlur stdDeviation="2"/>
<feComposite in2="hardAlpha" operator="out"/>
<feColorMatrix type="matrix" values="0 0 0 0 0 0 0 0 0 0 0 0 0 0 0 0 0 0 0.1 0"/>
<feBlend mode="normal" in2="BackgroundImageFix" result="effect1_dropShadow_166_76"/>
<feBlend mode="normal" in="SourceGraphic" in2="effect1_dropShadow_166_76" result="shape"/>
</filter>
<filter id="filter5_d_166_76" x="609.398" y="0" width="181.203" height="210" filterUnits="userSpaceOnUse" color-interpolation-filters="sRGB">
<feFlood flood-opacity="0" result="BackgroundImageFix"/>
<feColorMatrix in="SourceAlpha" type="matrix" values="0 0 0 0 0 0 0 0 0 0 0 0 0 0 0 0 0 0 127 0" result="hardAlpha"/>
<feOffset dy="6"/>
<feGaussianBlur stdDeviation="2"/>
<feComposite in2="hardAlpha" operator="out"/>
<feColorMatrix type="matrix" values="0 0 0 0 0 0 0 0 0 0 0 0 0 0 0 0 0 0 0.1 0"/>
<feBlend mode="normal" in2="BackgroundImageFix" result="effect1_dropShadow_166_76"/>
<feBlend mode="normal" in="SourceGraphic" in2="effect1_dropShadow_166_76" result="shape"/>
</filter>
<filter id="filter6_d_166_76" x="9.39844" y="0" width="181.203" height="210" filterUnits="userSpaceOnUse" color-interpolation-filters="sRGB">
<feFlood flood-opacity="0" result="BackgroundImageFix"/>
<feColorMatrix in="SourceAlpha" type="matrix" values="0 0 0 0 0 0 0 0 0 0 0 0 0 0 0 0 0 0 127 0" result="hardAlpha"/>
<feOffset dy="6"/>
<feGaussianBlur stdDeviation="2"/>
<feComposite in2="hardAlpha" operator="out"/>
<feColorMatrix type="matrix" values="0 0 0 0 0 0 0 0 0 0 0 0 0 0 0 0 0 0 0.1 0"/>
<feBlend mode="normal" in2="BackgroundImageFix" result="effect1_dropShadow_166_76"/>
<feBlend mode="normal" in="SourceGraphic" in2="effect1_dropShadow_166_76" result="shape"/>
</filter>
</defs>
</svg>
