<svg width="480" height="226" viewBox="0 0 480 226" fill="none" xmlns="http://www.w3.org/2000/svg">
<g filter="url(#filter0_d_409_254)">
<path d="M60 0L111.962 30V90L60 120L8.03848 90V30L60 0Z" fill="#EAEEFF"/>
</g>
<mask id="mask0_409_254" style="mask-type:alpha" maskUnits="userSpaceOnUse" x="26" y="18" width="68" height="68">
<rect x="26" y="18" width="68" height="68" fill="#D9D9D9"/>
</mask>
<g mask="url(#mask0_409_254)">
<path d="M38.0801 66.1666L48.4871 38.0513H51.4622L62.0327 66.1666H58.9977L56.1208 58.1244H43.8285L41.0061 66.1666H38.0801ZM44.7711 55.6506H55.2327L50.0891 41.1679H49.9147L44.7711 55.6506ZM73.0881 66.8913C71.0285 66.8913 69.4103 66.3437 68.2333 65.2485C67.0564 64.1533 66.468 62.6758 66.468 60.816C66.468 58.8326 67.1717 57.2244 68.5793 55.9912C69.9869 54.7579 71.8404 54.1413 74.1397 54.1413C75.1169 54.1413 76.0749 54.2421 77.0139 54.4437C77.9529 54.6453 78.753 54.935 79.4141 55.3128V53.7763C79.4141 51.9564 78.9591 50.5779 78.0492 49.6407C77.1392 48.7035 75.8016 48.2349 74.0362 48.2349C73.0809 48.2349 72.1845 48.402 71.3472 48.7362C70.5099 49.0704 69.6754 49.5844 68.8436 50.2782L67.1055 48.7198C68.1116 47.7718 69.1723 47.0761 70.2875 46.633C71.4027 46.1898 72.6577 45.9682 74.0526 45.9682C76.6897 45.9682 78.6604 46.6466 79.9644 48.0034C81.2685 49.3601 81.9205 51.3788 81.9205 54.0596V66.2538H79.4305V63.4096H79.1634C78.5132 64.572 77.6777 65.4429 76.657 66.0223C75.6363 66.6017 74.4466 66.8913 73.0881 66.8913ZM73.1426 64.6573C74.9443 64.6573 76.44 63.9808 77.6297 62.6277C78.8193 61.2746 79.4141 59.5701 79.4141 57.5141C78.7893 57.1363 78.0337 56.8439 77.1474 56.6369C76.2611 56.4298 75.3911 56.3263 74.5375 56.3263C72.8084 56.3263 71.4608 56.7213 70.4945 57.5114C69.5283 58.3014 69.0452 59.4029 69.0452 60.816C69.0452 61.9784 69.4175 62.9092 70.1622 63.6085C70.9068 64.3077 71.9003 64.6573 73.1426 64.6573Z" fill="#282828"/>
</g>
<path d="M45.6953 82.2344V83.625H41.9922V85.0781H45.1641V86.4062H41.9922V87.9688C43.6797 87.9609 44.8516 87.8906 46.2266 87.6406L46.4141 89.0312C44.7812 89.3047 43.4375 89.3516 41.2578 89.3438H40.3203V82.2344H45.6953ZM42.0859 92.0312V90.6406H51.8047V95.3906H50.0703V92.0312H42.0859ZM45.7734 86.3125V84.9062H47.3672V81.5625H49.0234V89.9531H47.3672V86.3125H45.7734ZM50.1484 90.0469V81.2812H51.8047V90.0469H50.1484ZM60.8516 83.2031C60.8516 85.3828 62.9844 87.5781 65.9453 88.0938L65.1641 89.5469C62.7969 89.0547 60.8594 87.6172 59.9375 85.7188C59.0078 87.6016 57.0703 89.0469 54.7109 89.5469L53.9453 88.0938C56.8594 87.5625 59 85.375 59.0078 83.2031V82.1562H60.8516V83.2031ZM53.5547 93.5938V92.1562H66.4609V93.5938H53.5547ZM78.8672 88.6719V90.0469H68.9609V82.375H78.7422V83.7812H70.7266V85.4844H78.4141V86.8438H70.7266V88.6719H78.8672ZM67.3828 93.6719V92.25H80.2891V93.6719H67.3828Z" fill="#282828"/>
<g filter="url(#filter1_d_409_254)">
<path d="M180 0L231.962 30V90L180 120L128.038 90V30L180 0Z" fill="#EAEEFF"/>
</g>
<mask id="mask1_409_254" style="mask-type:alpha" maskUnits="userSpaceOnUse" x="148" y="18" width="64" height="64">
<rect x="148" y="18" width="64" height="64" fill="#D9D9D9"/>
</mask>
<g mask="url(#mask1_409_254)">
<path d="M180 62.6152C182.786 62.6152 185.141 61.6537 187.064 59.7306C188.987 57.8075 189.949 55.4528 189.949 52.6665C189.949 49.8802 188.987 47.5255 187.064 45.6024C185.141 43.6793 182.786 42.7178 180 42.7178C177.214 42.7178 174.859 43.6793 172.936 45.6024C171.013 47.5255 170.051 49.8802 170.051 52.6665C170.051 55.4528 171.013 57.8075 172.936 59.7306C174.859 61.6537 177.214 62.6152 180 62.6152ZM180 59.9486C177.928 59.9486 176.197 59.2528 174.805 57.8614C173.414 56.4699 172.718 54.7383 172.718 52.6665C172.718 50.5947 173.414 48.8631 174.805 47.4716C176.197 46.0802 177.928 45.3844 180 45.3844C182.072 45.3844 183.803 46.0802 185.195 47.4716C186.586 48.8631 187.282 50.5947 187.282 52.6665C187.282 54.7383 186.586 56.4699 185.195 57.8614C183.803 59.2528 182.072 59.9486 180 59.9486ZM160.308 71.3332C159.08 71.3332 158.056 70.9221 157.233 70.0998C156.411 69.2776 156 68.2528 156 67.0255V38.3075C156 37.0802 156.411 36.0554 157.233 35.2332C158.056 34.4109 159.08 33.9998 160.308 33.9998H168.195L173.128 28.6665H186.872L191.805 33.9998H199.692C200.92 33.9998 201.944 34.4109 202.767 35.2332C203.589 36.0554 204 37.0802 204 38.3075V67.0255C204 68.2528 203.589 69.2776 202.767 70.0998C201.944 70.9221 200.92 71.3332 199.692 71.3332H160.308ZM199.692 68.6665C200.171 68.6665 200.564 68.5127 200.872 68.205C201.179 67.8973 201.333 67.5041 201.333 67.0255V38.3075C201.333 37.8289 201.179 37.4357 200.872 37.128C200.564 36.8203 200.171 36.6665 199.692 36.6665H190.636L185.718 31.3332H174.282L169.364 36.6665H160.308C159.829 36.6665 159.436 36.8203 159.128 37.128C158.821 37.4357 158.667 37.8289 158.667 38.3075V67.0255C158.667 67.5041 158.821 67.8973 159.128 68.205C159.436 68.5127 159.829 68.6665 160.308 68.6665H199.692Z" fill="#282828"/>
</g>
<path d="M171.477 81.2656V95.4062H169.727V81.2656H171.477ZM160.18 87.2812C160.172 84.2344 161.727 82.2969 163.867 82.2969C165.984 82.2969 167.547 84.2344 167.555 87.2812C167.547 90.3516 165.984 92.2812 163.867 92.2812C161.727 92.2812 160.172 90.3516 160.18 87.2812ZM161.852 87.2812C161.852 89.4531 162.672 90.7109 163.867 90.7188C165.055 90.7109 165.867 89.4531 165.867 87.2812C165.867 85.125 165.055 83.8594 163.867 83.8594C162.672 83.8594 161.852 85.125 161.852 87.2812ZM181.023 82.5938V91.9531H174.305V82.5938H181.023ZM176.023 90.5625H179.336V83.9531H176.023V90.5625ZM183.555 95.4062V81.2656H185.305V95.4062H183.555ZM192.711 85.2812C192.711 87.5938 194.07 90.0312 196.352 90.9844L195.398 92.3594C193.727 91.6328 192.508 90.1562 191.859 88.3594C191.211 90.2969 189.969 91.9219 188.32 92.7031L187.32 91.3438C189.547 90.3125 190.938 87.6797 190.945 85.2812V84.0938H187.836V82.6562H195.805V84.0938H192.711V85.2812ZM197.383 95.3906V81.2656H199.133V95.3906H197.383Z" fill="#282828"/>
<g filter="url(#filter2_d_409_254)">
<path d="M300 0L351.962 30V90L300 120L248.038 90V30L300 0Z" fill="#EAEEFF"/>
</g>
<mask id="mask2_409_254" style="mask-type:alpha" maskUnits="userSpaceOnUse" x="268" y="18" width="64" height="64">
<rect x="268" y="18" width="64" height="64" fill="#D9D9D9"/>
</mask>
<g mask="url(#mask2_409_254)">
<path d="M300 52.6667C298.496 52.6667 297.231 52.1538 296.205 51.1282C295.179 50.1026 294.667 48.8376 294.667 47.3333V31.3333C294.667 29.8291 295.179 28.5641 296.205 27.5385C297.231 26.5128 298.496 26 300 26C301.504 26 302.769 26.5128 303.795 27.5385C304.821 28.5641 305.333 29.8291 305.333 31.3333V47.3333C305.333 48.8376 304.821 50.1026 303.795 51.1282C302.769 52.1538 301.504 52.6667 300 52.6667ZM298.667 72.6667V63.2872C294.489 62.9043 291 61.1966 288.2 58.1641C285.4 55.1316 284 51.5214 284 47.3333H286.667C286.667 51.0222 287.967 54.1667 290.567 56.7667C293.167 59.3667 296.311 60.6667 300 60.6667C303.689 60.6667 306.833 59.3667 309.433 56.7667C312.033 54.1667 313.333 51.0222 313.333 47.3333H316C316 51.5214 314.6 55.1316 311.8 58.1641C309 61.1966 305.511 62.9043 301.333 63.2872V72.6667H298.667ZM300 50C300.756 50 301.389 49.7444 301.9 49.2333C302.411 48.7222 302.667 48.0889 302.667 47.3333V31.3333C302.667 30.5778 302.411 29.9444 301.9 29.4333C301.389 28.9222 300.756 28.6667 300 28.6667C299.244 28.6667 298.611 28.9222 298.1 29.4333C297.589 29.9444 297.333 30.5778 297.333 31.3333V47.3333C297.333 48.0889 297.589 48.7222 298.1 49.2333C298.611 49.7444 299.244 50 300 50Z" fill="#282828"/>
</g>
<path d="M293.062 81.5469C296.188 81.5469 298.148 82.5703 298.156 84.2969C298.148 85.9844 296.188 86.9922 293.062 86.9844C289.969 86.9922 287.969 85.9844 287.969 84.2969C287.969 82.5703 289.969 81.5469 293.062 81.5469ZM286.641 89.3438V87.9375H299.516V89.3438H286.641ZM288.156 95.2188V90.4688H297.953V95.2188H288.156ZM289.781 84.2969C289.766 85.1484 291 85.6328 293.062 85.6406C295.125 85.6328 296.359 85.1484 296.359 84.2969C296.359 83.3984 295.125 82.9062 293.062 82.9062C291 82.9062 289.766 83.3984 289.781 84.2969ZM289.875 93.8125H296.266V91.8438H289.875V93.8125ZM305.641 83.2969C305.633 85.2188 306.758 86.9766 308.969 87.6719L308.031 89.0312C306.492 88.4844 305.414 87.4531 304.812 86.1172C304.188 87.6562 303.008 88.8672 301.297 89.4688L300.375 88.0625C302.711 87.2969 303.883 85.4141 303.891 83.375V82.0312H305.641V83.2969ZM302.719 92.6719C302.703 90.9531 304.539 89.9453 307.516 89.9531C310.508 89.9453 312.336 90.9531 312.344 92.6719C312.336 94.3906 310.508 95.375 307.516 95.375C304.539 95.375 302.703 94.3906 302.719 92.6719ZM304.438 92.6719C304.43 93.5312 305.555 94.0078 307.516 94.0156C309.492 94.0078 310.609 93.5312 310.609 92.6719C310.609 91.7812 309.492 91.3047 307.516 91.2969C305.555 91.3047 304.43 91.7812 304.438 92.6719ZM307.75 85.4219V84H310.562V81.2656H312.297V89.5781H310.562V85.4219H307.75Z" fill="#282828"/>
<g filter="url(#filter3_d_409_254)">
<path d="M121 98L172.962 128V188L121 218L69.0385 188V128L121 98Z" fill="#EAEEFF"/>
</g>
<mask id="mask3_409_254" style="mask-type:alpha" maskUnits="userSpaceOnUse" x="93" y="120" width="56" height="56">
<rect x="93" y="120" width="56" height="56" fill="#D9D9D9"/>
</mask>
<g mask="url(#mask3_409_254)">
<path d="M126.832 172.922V170.589C131.382 170.589 135.234 169.012 138.389 165.857C141.543 162.703 143.121 158.85 143.121 154.3H145.454C145.454 156.888 144.967 159.313 143.993 161.576C143.02 163.839 141.695 165.809 140.018 167.486C138.341 169.163 136.371 170.488 134.108 171.462C131.845 172.435 129.42 172.922 126.832 172.922ZM126.832 165.025V162.692C129.166 162.692 131.147 161.876 132.778 160.246C134.408 158.616 135.223 156.634 135.223 154.3H137.557C137.557 157.259 136.509 159.786 134.413 161.882C132.318 163.977 129.791 165.025 126.832 165.025ZM107.295 170.208C106.831 170.208 106.383 170.128 105.949 169.97C105.515 169.811 105.125 169.563 104.778 169.225L96.4944 160.942C96.1563 160.594 95.908 160.204 95.7495 159.77C95.591 159.337 95.5117 158.888 95.5117 158.424C95.5117 157.952 95.591 157.508 95.7495 157.094C95.9081 156.679 96.1563 156.303 96.4944 155.965L103.005 149.454C103.69 148.769 104.522 148.425 105.5 148.42C106.478 148.416 107.31 148.756 107.995 149.441L111.405 152.851L114.699 149.558L111.289 146.147C110.604 145.462 110.261 144.635 110.261 143.666C110.261 142.697 110.604 141.869 111.289 141.184L113.716 138.757C114.401 138.072 115.223 137.729 116.182 137.729C117.141 137.729 117.963 138.072 118.648 138.757L122.058 142.167L125.351 138.874L121.941 135.463C121.256 134.778 120.914 133.949 120.914 132.975C120.914 132.001 121.256 131.172 121.941 130.487L128.452 123.976C128.799 123.629 129.182 123.369 129.601 123.195C130.02 123.022 130.461 122.935 130.925 122.935C131.388 122.935 131.835 123.014 132.264 123.173C132.693 123.331 133.081 123.584 133.428 123.931L141.712 132.215C142.059 132.553 142.309 132.936 142.463 133.366C142.617 133.795 142.694 134.246 142.694 134.718C142.694 135.182 142.617 135.631 142.463 136.065C142.309 136.498 142.059 136.889 141.712 137.236L135.201 143.747C134.516 144.432 133.686 144.774 132.713 144.774C131.739 144.774 130.91 144.432 130.225 143.747L126.814 140.336L123.521 143.63L126.931 147.04C127.616 147.725 127.956 148.555 127.952 149.528C127.947 150.502 127.603 151.331 126.918 152.017L124.548 154.386C123.863 155.071 123.034 155.421 122.06 155.436C121.086 155.451 120.257 155.116 119.572 154.431L116.162 151.02L112.868 154.314L116.278 157.724C116.963 158.409 117.304 159.241 117.299 160.219C117.295 161.197 116.95 162.029 116.265 162.714L109.754 169.225C109.416 169.563 109.04 169.811 108.626 169.97C108.211 170.128 107.768 170.208 107.295 170.208ZM106.532 167.663C106.742 167.873 106.996 167.977 107.295 167.977C107.594 167.977 107.848 167.873 108.058 167.663L110.642 165.079L100.699 155.135L98.1143 157.72C97.9049 157.929 97.8002 158.183 97.8002 158.483C97.8002 158.782 97.9049 159.036 98.1143 159.245L106.532 167.663ZM112.119 163.558L114.703 160.973C114.913 160.764 115.017 160.509 115.017 160.21C115.017 159.911 114.913 159.657 114.703 159.447L106.285 151.029C106.076 150.82 105.822 150.715 105.523 150.715C105.223 150.715 104.969 150.82 104.76 151.029L102.175 153.614L112.119 163.558ZM121.282 152.824C121.491 153.034 121.745 153.138 122.044 153.138C122.344 153.138 122.598 153.034 122.807 152.824L125.356 150.275C125.565 150.066 125.67 149.812 125.67 149.513C125.67 149.214 125.565 148.959 125.356 148.75L116.938 140.332C116.729 140.123 116.474 140.018 116.175 140.018C115.876 140.018 115.622 140.123 115.412 140.332L112.864 142.881C112.654 143.09 112.55 143.344 112.55 143.643C112.55 143.943 112.654 144.197 112.864 144.406L121.282 152.824ZM131.934 142.127C132.144 142.336 132.398 142.441 132.697 142.441C132.996 142.441 133.25 142.336 133.46 142.127L136.044 139.542L126.101 129.599L123.516 132.183C123.307 132.393 123.202 132.647 123.202 132.946C123.202 133.245 123.307 133.499 123.516 133.709L131.934 142.127ZM137.566 138.066L140.15 135.481C140.36 135.272 140.464 135.018 140.464 134.718C140.464 134.419 140.36 134.165 140.15 133.956L131.732 125.538C131.523 125.328 131.269 125.224 130.969 125.224C130.67 125.224 130.416 125.328 130.207 125.538L127.622 128.122L137.566 138.066Z" fill="#282828"/>
</g>
<path d="M110.25 179.891C112.398 179.883 113.953 181.086 113.953 182.859C113.953 184.602 112.398 185.82 110.25 185.812C108.125 185.82 106.578 184.602 106.578 182.859C106.578 181.086 108.125 179.883 110.25 179.891ZM105.656 186.781C108.203 186.781 111.773 186.734 114.812 186.281L114.938 187.562C113.719 187.797 112.453 187.945 111.219 188.039V192.953H109.469V188.141C108.164 188.195 106.938 188.211 105.875 188.219L105.656 186.781ZM108.266 182.859C108.258 183.805 109.094 184.398 110.25 184.391C111.453 184.398 112.297 183.805 112.297 182.859C112.297 181.883 111.453 181.281 110.25 181.297C109.094 181.281 108.258 181.883 108.266 182.859ZM115.734 193.375V179.281H117.453V193.375H115.734ZM124.641 181.297C124.633 183.219 125.758 184.977 127.969 185.672L127.031 187.031C125.492 186.484 124.414 185.453 123.812 184.117C123.188 185.656 122.008 186.867 120.297 187.469L119.375 186.062C121.711 185.297 122.883 183.414 122.891 181.375V180.031H124.641V181.297ZM121.719 190.672C121.703 188.953 123.539 187.945 126.516 187.953C129.508 187.945 131.336 188.953 131.344 190.672C131.336 192.391 129.508 193.375 126.516 193.375C123.539 193.375 121.703 192.391 121.719 190.672ZM123.438 190.672C123.43 191.531 124.555 192.008 126.516 192.016C128.492 192.008 129.609 191.531 129.609 190.672C129.609 189.781 128.492 189.305 126.516 189.297C124.555 189.305 123.43 189.781 123.438 190.672ZM126.75 183.422V182H129.562V179.266H131.297V187.578H129.562V183.422H126.75Z" fill="#282828"/>
<g filter="url(#filter4_d_409_254)">
<path d="M241 98L292.962 128V188L241 218L189.038 188V128L241 98Z" fill="#EAEEFF"/>
</g>
<mask id="mask4_409_254" style="mask-type:alpha" maskUnits="userSpaceOnUse" x="209" y="116" width="60" height="60">
<rect x="209" y="116" width="60" height="60" fill="#D9D9D9"/>
</mask>
<g mask="url(#mask4_409_254)">
<path d="M217.75 167.25V164.029L220.25 161.529V167.25H217.75ZM227.75 167.25V154.029L230.25 151.529V167.25H227.75ZM237.75 167.25V151.529L240.25 154.091V167.25H237.75ZM247.75 167.25V154.091L250.25 151.591V167.25H247.75ZM257.75 167.25V144.029L260.25 141.529V167.25H257.75ZM217.75 152.534V149.029L234 132.779L244 142.779L260.25 126.529V130.034L244 146.284L234 136.284L217.75 152.534Z" fill="#282828"/>
</g>
<path d="M223.852 190.312V191.75H210.945V190.312H216.508V188.016H212.477V183.391H220.602V181.641H212.445V180.234H222.32V184.766H214.211V186.594H222.648V188.016H218.227V190.312H223.852ZM236.008 180.641V182.234C236.008 184.125 236.008 186.07 235.492 189.047L233.727 188.891C234.273 186.117 234.273 184.07 234.273 182.234V182.047H226.133V180.641H236.008ZM224.773 191.453V190.031H237.648V191.453H224.773ZM243.695 180.156L240.055 193.703H238.305L241.961 180.156H243.695ZM251.695 180.438C251.688 182.211 253.68 184.016 256.695 184.406L256.008 185.812C253.609 185.453 251.703 184.273 250.781 182.68C249.859 184.273 247.961 185.453 245.586 185.812L244.898 184.406C247.883 184.016 249.867 182.227 249.867 180.438V179.719H251.695V180.438ZM244.336 188.469V187.031H257.211V188.469H251.602V193.391H249.883V188.469H244.336ZM269.898 179.266V193.391H268.164V179.266H269.898ZM258.305 189.375C260.555 188.383 261.852 186.008 261.852 183.75V183.016H258.742V181.625H261.852V179.562H263.57V181.625H266.617V183.016H263.586V183.75C263.578 185.898 264.898 188.203 267.18 189.156L266.227 190.484C264.609 189.797 263.391 188.391 262.742 186.688C262.109 188.492 260.891 190 259.242 190.719L258.305 189.375Z" fill="#282828"/>
<g filter="url(#filter5_d_409_254)">
<path d="M361 98L412.962 128V188L361 218L309.038 188V128L361 98Z" fill="#EAEEFF"/>
</g>
<mask id="mask5_409_254" style="mask-type:alpha" maskUnits="userSpaceOnUse" x="329" y="116" width="64" height="64">
<rect x="329" y="116" width="64" height="64" fill="#D9D9D9"/>
</mask>
<g mask="url(#mask5_409_254)">
<path d="M341.923 169.333C340.696 169.333 339.671 168.922 338.849 168.1C338.026 167.278 337.615 166.253 337.615 165.026V130.974C337.615 129.747 338.026 128.722 338.849 127.9C339.671 127.078 340.696 126.667 341.923 126.667H375.974C377.202 126.667 378.226 127.078 379.049 127.9C379.871 128.722 380.282 129.747 380.282 130.974V136.718H384.385V139.384H380.282V146.667H384.385V149.333H380.282V156.615H384.385V159.282H380.282V165.026C380.282 166.253 379.871 167.278 379.049 168.1C378.226 168.922 377.202 169.333 375.974 169.333H341.923ZM341.923 166.667H375.974C376.384 166.667 376.761 166.496 377.102 166.154C377.444 165.812 377.615 165.436 377.615 165.026V130.974C377.615 130.564 377.444 130.188 377.102 129.846C376.761 129.504 376.384 129.333 375.974 129.333H341.923C341.513 129.333 341.137 129.504 340.795 129.846C340.453 130.188 340.282 130.564 340.282 130.974V165.026C340.282 165.436 340.453 165.812 340.795 166.154C341.137 166.496 341.513 166.667 341.923 166.667ZM347.667 159.282H358.436V151.179H347.667V159.282ZM362.128 142.154H370.231V136.718H362.128V142.154ZM347.667 147.487H358.436V136.718H347.667V147.487ZM362.128 159.282H370.231V145.846H362.128V159.282Z" fill="#282828"/>
</g>
<path d="M344.875 179.266V184.641H347.047V186.109H344.875V193.391H343.141V179.266H344.875ZM334.312 190.078V180.422H336.031V183.953H339.359V180.422H341.094V190.078H334.312ZM336.031 188.656H339.359V185.312H336.031V188.656ZM359.391 179.266V193.406H357.641V179.266H359.391ZM348.094 185.281C348.086 182.234 349.641 180.297 351.781 180.297C353.898 180.297 355.461 182.234 355.469 185.281C355.461 188.352 353.898 190.281 351.781 190.281C349.641 190.281 348.086 188.352 348.094 185.281ZM349.766 185.281C349.766 187.453 350.586 188.711 351.781 188.719C352.969 188.711 353.781 187.453 353.781 185.281C353.781 183.125 352.969 181.859 351.781 181.859C350.586 181.859 349.766 183.125 349.766 185.281ZM373.328 179.266V193.406H371.594V185.141H367.547V183.734H371.594V179.266H373.328ZM362.219 190.062V180.812H363.953V188.602C365.852 188.578 367.734 188.438 369.719 188.047L369.922 189.469C367.648 189.938 365.539 190.055 363.375 190.062H362.219ZM387.062 179.266V193.406H385.344V179.266H387.062ZM376.062 181.906V180.5H382.719V185.797H377.859V188.641C380.086 188.625 382 188.508 384.203 188.141L384.359 189.562C381.961 189.977 379.852 190.07 377.312 190.062H376.078V184.422H380.953V181.906H376.062Z" fill="#282828"/>
<g filter="url(#filter6_d_409_254)">
<path d="M420 0L471.962 30V90L420 120L368.038 90V30L420 0Z" fill="#EAEEFF"/>
</g>
<mask id="mask6_409_254" style="mask-type:alpha" maskUnits="userSpaceOnUse" x="388" y="18" width="64" height="64">
<rect x="388" y="18" width="64" height="64" fill="#D9D9D9"/>
</mask>
<g mask="url(#mask6_409_254)">
<path d="M414.667 59.5385L429.538 50L414.667 40.4615V59.5385ZM420.009 74C416.69 74 413.57 73.3702 410.648 72.1107C407.727 70.8512 405.185 69.1418 403.024 66.9826C400.863 64.8234 399.152 62.2844 397.891 59.3655C396.63 56.4465 396 53.3277 396 50.0089C396 46.6901 396.63 43.5699 397.889 40.6483C399.149 37.7266 400.858 35.1852 403.017 33.0239C405.177 30.8627 407.716 29.1518 410.635 27.8911C413.553 26.6304 416.672 26 419.991 26C423.31 26 426.43 26.6298 429.352 27.8893C432.273 29.1488 434.815 30.8582 436.976 33.0174C439.137 35.1766 440.848 37.7156 442.109 40.6345C443.37 43.5535 444 46.6723 444 49.9911C444 53.3099 443.37 56.4301 442.111 59.3517C440.851 62.2734 439.142 64.8148 436.983 66.9761C434.823 69.1373 432.284 70.8482 429.365 72.1089C426.447 73.3697 423.328 74 420.009 74ZM420 71.3333C425.956 71.3333 431 69.2667 435.133 65.1333C439.267 61 441.333 55.9556 441.333 50C441.333 44.0444 439.267 39 435.133 34.8667C431 30.7333 425.956 28.6667 420 28.6667C414.044 28.6667 409 30.7333 404.867 34.8667C400.733 39 398.667 44.0444 398.667 50C398.667 55.9556 400.733 61 404.867 65.1333C409 69.2667 414.044 71.3333 420 71.3333Z" fill="#282828"/>
</g>
<path d="M411.477 81.2656V95.4062H409.727V81.2656H411.477ZM400.477 92.0781V82.4219H402.211V85.9531H405.633V82.4219H407.352V92.0781H400.477ZM402.211 90.6562H405.633V87.3125H402.211V90.6562ZM425.305 81.2656V95.4062H423.555V81.2656H425.305ZM414.43 92V82.5469H421.242V83.9688H416.18V90.5312C418.773 90.5156 420.406 90.4453 422.289 90.1094L422.461 91.5469C420.438 91.9219 418.617 92 415.633 92H414.43ZM433.805 82.0625C436.836 82.0703 439.078 83.5781 439.07 85.875C439.078 87.9922 437.258 89.4062 434.664 89.6641V92.25H440.289V93.6719H427.383V92.25H432.945V89.6641C430.383 89.4062 428.562 87.9922 428.57 85.875C428.562 83.5781 430.797 82.0703 433.805 82.0625ZM430.273 85.875C430.266 87.3984 431.742 88.3125 433.805 88.3125C435.898 88.3125 437.367 87.3984 437.367 85.875C437.367 84.3984 435.898 83.4609 433.805 83.4688C431.742 83.4609 430.266 84.3984 430.273 85.875Z" fill="#282828"/>
<defs>
<filter id="filter0_d_409_254" x="4.03906" y="0" width="111.922" height="128" filterUnits="userSpaceOnUse" color-interpolation-filters="sRGB">
<feFlood flood-opacity="0" result="BackgroundImageFix"/>
<feColorMatrix in="SourceAlpha" type="matrix" values="0 0 0 0 0 0 0 0 0 0 0 0 0 0 0 0 0 0 127 0" result="hardAlpha"/>
<feOffset dy="4"/>
<feGaussianBlur stdDeviation="2"/>
<feComposite in2="hardAlpha" operator="out"/>
<feColorMatrix type="matrix" values="0 0 0 0 0 0 0 0 0 0 0 0 0 0 0 0 0 0 0.08 0"/>
<feBlend mode="normal" in2="BackgroundImageFix" result="effect1_dropShadow_409_254"/>
<feBlend mode="normal" in="SourceGraphic" in2="effect1_dropShadow_409_254" result="shape"/>
</filter>
<filter id="filter1_d_409_254" x="124.039" y="0" width="111.922" height="128" filterUnits="userSpaceOnUse" color-interpolation-filters="sRGB">
<feFlood flood-opacity="0" result="BackgroundImageFix"/>
<feColorMatrix in="SourceAlpha" type="matrix" values="0 0 0 0 0 0 0 0 0 0 0 0 0 0 0 0 0 0 127 0" result="hardAlpha"/>
<feOffset dy="4"/>
<feGaussianBlur stdDeviation="2"/>
<feComposite in2="hardAlpha" operator="out"/>
<feColorMatrix type="matrix" values="0 0 0 0 0 0 0 0 0 0 0 0 0 0 0 0 0 0 0.08 0"/>
<feBlend mode="normal" in2="BackgroundImageFix" result="effect1_dropShadow_409_254"/>
<feBlend mode="normal" in="SourceGraphic" in2="effect1_dropShadow_409_254" result="shape"/>
</filter>
<filter id="filter2_d_409_254" x="244.039" y="0" width="111.922" height="128" filterUnits="userSpaceOnUse" color-interpolation-filters="sRGB">
<feFlood flood-opacity="0" result="BackgroundImageFix"/>
<feColorMatrix in="SourceAlpha" type="matrix" values="0 0 0 0 0 0 0 0 0 0 0 0 0 0 0 0 0 0 127 0" result="hardAlpha"/>
<feOffset dy="4"/>
<feGaussianBlur stdDeviation="2"/>
<feComposite in2="hardAlpha" operator="out"/>
<feColorMatrix type="matrix" values="0 0 0 0 0 0 0 0 0 0 0 0 0 0 0 0 0 0 0.08 0"/>
<feBlend mode="normal" in2="BackgroundImageFix" result="effect1_dropShadow_409_254"/>
<feBlend mode="normal" in="SourceGraphic" in2="effect1_dropShadow_409_254" result="shape"/>
</filter>
<filter id="filter3_d_409_254" x="65.0391" y="98" width="111.922" height="128" filterUnits="userSpaceOnUse" color-interpolation-filters="sRGB">
<feFlood flood-opacity="0" result="BackgroundImageFix"/>
<feColorMatrix in="SourceAlpha" type="matrix" values="0 0 0 0 0 0 0 0 0 0 0 0 0 0 0 0 0 0 127 0" result="hardAlpha"/>
<feOffset dy="4"/>
<feGaussianBlur stdDeviation="2"/>
<feComposite in2="hardAlpha" operator="out"/>
<feColorMatrix type="matrix" values="0 0 0 0 0 0 0 0 0 0 0 0 0 0 0 0 0 0 0.08 0"/>
<feBlend mode="normal" in2="BackgroundImageFix" result="effect1_dropShadow_409_254"/>
<feBlend mode="normal" in="SourceGraphic" in2="effect1_dropShadow_409_254" result="shape"/>
</filter>
<filter id="filter4_d_409_254" x="185.039" y="98" width="111.922" height="128" filterUnits="userSpaceOnUse" color-interpolation-filters="sRGB">
<feFlood flood-opacity="0" result="BackgroundImageFix"/>
<feColorMatrix in="SourceAlpha" type="matrix" values="0 0 0 0 0 0 0 0 0 0 0 0 0 0 0 0 0 0 127 0" result="hardAlpha"/>
<feOffset dy="4"/>
<feGaussianBlur stdDeviation="2"/>
<feComposite in2="hardAlpha" operator="out"/>
<feColorMatrix type="matrix" values="0 0 0 0 0 0 0 0 0 0 0 0 0 0 0 0 0 0 0.08 0"/>
<feBlend mode="normal" in2="BackgroundImageFix" result="effect1_dropShadow_409_254"/>
<feBlend mode="normal" in="SourceGraphic" in2="effect1_dropShadow_409_254" result="shape"/>
</filter>
<filter id="filter5_d_409_254" x="305.039" y="98" width="111.922" height="128" filterUnits="userSpaceOnUse" color-interpolation-filters="sRGB">
<feFlood flood-opacity="0" result="BackgroundImageFix"/>
<feColorMatrix in="SourceAlpha" type="matrix" values="0 0 0 0 0 0 0 0 0 0 0 0 0 0 0 0 0 0 127 0" result="hardAlpha"/>
<feOffset dy="4"/>
<feGaussianBlur stdDeviation="2"/>
<feComposite in2="hardAlpha" operator="out"/>
<feColorMatrix type="matrix" values="0 0 0 0 0 0 0 0 0 0 0 0 0 0 0 0 0 0 0.08 0"/>
<feBlend mode="normal" in2="BackgroundImageFix" result="effect1_dropShadow_409_254"/>
<feBlend mode="normal" in="SourceGraphic" in2="effect1_dropShadow_409_254" result="shape"/>
</filter>
<filter id="filter6_d_409_254" x="364.039" y="0" width="111.922" height="128" filterUnits="userSpaceOnUse" color-interpolation-filters="sRGB">
<feFlood flood-opacity="0" result="BackgroundImageFix"/>
<feColorMatrix in="SourceAlpha" type="matrix" values="0 0 0 0 0 0 0 0 0 0 0 0 0 0 0 0 0 0 127 0" result="hardAlpha"/>
<feOffset dy="4"/>
<feGaussianBlur stdDeviation="2"/>
<feComposite in2="hardAlpha" operator="out"/>
<feColorMatrix type="matrix" values="0 0 0 0 0 0 0 0 0 0 0 0 0 0 0 0 0 0 0.08 0"/>
<feBlend mode="normal" in2="BackgroundImageFix" result="effect1_dropShadow_409_254"/>
<feBlend mode="normal" in="SourceGraphic" in2="effect1_dropShadow_409_254" result="shape"/>
</filter>
</defs>
</svg>
