<svg width="60" height="60" viewBox="0 0 60 60" fill="none" xmlns="http://www.w3.org/2000/svg">
<mask id="mask0_428_2003" style="mask-type:alpha" maskUnits="userSpaceOnUse" x="0" y="0" width="60" height="60">
<rect width="60" height="60" fill="#D9D9D9"/>
</mask>
<g mask="url(#mask0_428_2003)">
<path d="M9.9375 42.499L19.3125 17.499H23.8125L33.1875 42.499H28.875L26.625 36.124H16.5L14.25 42.499H9.9375ZM17.8125 32.499H25.3125L21.6875 22.124H21.4375L17.8125 32.499ZM40.875 43.1865C38.8333 43.1865 37.2292 42.6553 36.0625 41.5928C34.8958 40.5303 34.3125 39.0824 34.3125 37.249C34.3125 35.499 34.9896 34.0719 36.3438 32.9678C37.6979 31.8636 39.4375 31.3115 41.5625 31.3115C42.5208 31.3115 43.4063 31.3844 44.2188 31.5303C45.0313 31.6761 45.7292 31.9157 46.3125 32.249V31.374C46.3125 30.249 45.9271 29.3532 45.1563 28.6865C44.3854 28.0199 43.3333 27.6865 42 27.6865C41.125 27.6865 40.3021 27.874 39.5313 28.249C38.7604 28.624 38.1042 29.1657 37.5625 29.874L34.875 27.874C35.6667 26.749 36.6667 25.8949 37.875 25.3115C39.0833 24.7282 40.4792 24.4365 42.0625 24.4365C44.6458 24.4365 46.625 25.0511 48 26.2803C49.375 27.5094 50.0625 29.2907 50.0625 31.624V42.624H46.375V40.499H46.1875C45.6458 41.3324 44.9167 41.9886 44 42.4678C43.0833 42.9469 42.0417 43.1865 40.875 43.1865ZM41.5 40.0615C42.8333 40.0615 43.9688 39.5928 44.9063 38.6553C45.8438 37.7178 46.3125 36.5824 46.3125 35.249C45.7292 34.9157 45.0625 34.6657 44.3125 34.499C43.5625 34.3324 42.875 34.249 42.25 34.249C40.9167 34.249 39.8958 34.5094 39.1875 35.0303C38.4792 35.5511 38.125 36.2907 38.125 37.249C38.125 38.0824 38.4375 38.7594 39.0625 39.2803C39.6875 39.8011 40.5 40.0615 41.5 40.0615Z" fill="#BBBECC"/>
</g>
</svg>
