<svg width="24" height="24" viewBox="0 0 19 19" fill="none" xmlns="http://www.w3.org/2000/svg">
<path d="M2.17521 18.0004C1.82521 18.0837 1.52105 17.9962 1.26271 17.7379C1.00438 17.4796 0.916881 17.1754 1.00021 16.8254L2.00021 12.0504L6.95021 17.0004L2.17521 18.0004ZM6.95021 17.0004L2.00021 12.0504L13.4502 0.600391C13.8335 0.217057 14.3085 0.0253906 14.8752 0.0253906C15.4419 0.0253906 15.9169 0.217057 16.3002 0.600391L18.4002 2.70039C18.7835 3.08372 18.9752 3.55872 18.9752 4.12539C18.9752 4.69206 18.7835 5.16706 18.4002 5.55039L6.95021 17.0004ZM14.8752 2.00039L4.52521 12.3504L6.65021 14.4754L17.0002 4.12539L14.8752 2.00039Z" fill="white"/>
</svg>
