<svg width="24" height="24" viewBox="0 0 24 24" fill="none" xmlns="http://www.w3.org/2000/svg">
<mask id="mask0_586_8" style="mask-type:alpha" maskUnits="userSpaceOnUse" x="0" y="0" width="24" height="25">
<rect y="0.333496" width="24" height="24" fill="#D9D9D9"/>
</mask>
<g mask="url(#mask0_586_8)">
<path d="M1 21.3335L12 2.3335L23 21.3335H1ZM4.45 19.3335H19.55L12 6.3335L4.45 19.3335ZM12 18.3335C12.2833 18.3335 12.5208 18.2377 12.7125 18.046C12.9042 17.8543 13 17.6168 13 17.3335C13 17.0502 12.9042 16.8127 12.7125 16.621C12.5208 16.4293 12.2833 16.3335 12 16.3335C11.7167 16.3335 11.4792 16.4293 11.2875 16.621C11.0958 16.8127 11 17.0502 11 17.3335C11 17.6168 11.0958 17.8543 11.2875 18.046C11.4792 18.2377 11.7167 18.3335 12 18.3335ZM11 15.3335H13V10.3335H11V15.3335Z" fill="#1C1B1F"/>
</g>
</svg>
